<?xml version="1.0" encoding="UTF-8" standalone="no"?>
<!-- Created with Inkscape (http://www.inkscape.org/) -->

<svg
   width="134.24236mm"
   height="113.69543mm"
   viewBox="0 0 134.24236 113.69543"
   version="1.1"
   id="svg5"
   xml:space="preserve"
   inkscape:version="1.3.2 (091e20e, 2023-11-25, custom)"
   sodipodi:docname="Logo.svg"
   xmlns:inkscape="http://www.inkscape.org/namespaces/inkscape"
   xmlns:sodipodi="http://sodipodi.sourceforge.net/DTD/sodipodi-0.dtd"
   xmlns="http://www.w3.org/2000/svg"
   xmlns:svg="http://www.w3.org/2000/svg"><sodipodi:namedview
     id="namedview7"
     pagecolor="#505050"
     bordercolor="#eeeeee"
     borderopacity="1"
     inkscape:showpageshadow="0"
     inkscape:pageopacity="0"
     inkscape:pagecheckerboard="0"
     inkscape:deskcolor="#505050"
     inkscape:document-units="mm"
     showgrid="false"
     inkscape:zoom="0.70710678"
     inkscape:cx="27.577164"
     inkscape:cy="386.78741"
     inkscape:window-width="1920"
     inkscape:window-height="1009"
     inkscape:window-x="-8"
     inkscape:window-y="-8"
     inkscape:window-maximized="1"
     inkscape:current-layer="layer1" /><defs
     id="defs2" /><g
     inkscape:label="Capa 1"
     inkscape:groupmode="layer"
     id="layer1"
     transform="translate(-40.178426,-42.812374)"><path
       id="path283"
       style="fill:#000000;stroke-width:0.238938"
       d="m 91.214587,42.812374 c -2.470501,0.0015 -4.636879,1.650041 -5.296834,4.030762 h -0.02429 L 41.003699,147.2215 c -0.538211,0.86825 -0.823978,1.86924 -0.825273,2.89078 3.9e-5,3.03751 2.462414,5.49989 5.499923,5.49993 1.410357,-6.5e-4 2.766572,-0.54306 3.788399,-1.51516 l 0.06304,0.0455 70.159022,-48.35157 c 0.6824,-0.50066 3.74522,-2.7357 3.7469,-5.20882 -0.24635,-3.328596 -2.79829,-5.298356 -5.25361,-5.320792 -1.49106,0.0011 -3.70147,1.12264 -3.90846,1.411821 L 58.575753,134.61711 90.551062,63.950102 103.44847,99.597021 112.85306,93.506437 96.616842,47.282385 c -0.494438,-2.59352 -2.762025,-4.469799 -5.402255,-4.470011 z"
       sodipodi:nodetypes="cccccccccccccccccc" /><path
       id="path283-1"
       style="fill:#000000;stroke-width:0.238938"
       d="m 168.92096,44.656706 c -2.54968,6.59e-4 -4.51831,1.977487 -5.3511,4.234883 l -35.76474,86.893401 -9.37307,-25.58655 -8.99325,6.08025 12.91962,36.73264 0.0196,0.0445 c 0.82592,2.10642 2.90095,3.45183 5.16351,3.45198 2.01,-0.001 3.85921,-1.09898 4.82296,-2.86287 h 5.2e-4 l 0.002,-0.006 c 0.19458,-0.35684 0.42737,-0.92447 0.46044,-1.125 l 40.60527,-99.214611 c 0.50842,-1.213168 0.9876,-2.018957 0.98806,-3.142961 -4e-5,-3.037504 -2.46242,-5.499878 -5.49992,-5.499922 z"
       sodipodi:nodetypes="ccccccccccccccc" /></g></svg>
